<?xml version="1.0" standalone="no"?>
<!DOCTYPE svg PUBLIC "-//W3C//DTD SVG 20010904//EN"
 "http://www.w3.org/TR/2001/REC-SVG-20010904/DTD/svg10.dtd">
<svg version="1.0" xmlns="http://www.w3.org/2000/svg"
 width="500.000000pt" height="500.000000pt" viewBox="0 0 500.000000 500.000000"
 preserveAspectRatio="xMidYMid meet">

<g transform="translate(0.000000,500.000000) scale(0.100000,-0.100000)"
fill="#000000" stroke="none">
<path d="M2180 4660 c-655 -81 -1227 -442 -1575 -995 -127 -201 -228 -456
-280 -705 -36 -169 -46 -511 -21 -695 50 -363 188 -700 406 -993 80 -107 258
-293 365 -379 291 -235 635 -388 1010 -450 152 -25 518 -25 655 1 381 70 683
201 970 422 107 82 281 254 365 359 231 291 381 637 440 1012 23 150 21 451
-4 618 -116 771 -638 1415 -1366 1683 -244 90 -421 123 -695 127 -107 2 -229
0 -270 -5z m530 -46 c586 -86 1099 -406 1429 -894 466 -686 487 -1572 55
-2271 -409 -662 -1162 -1048 -1928 -989 -379 29 -715 144 -1022 351 -826 556
-1147 1634 -758 2546 374 876 1289 1393 2224 1257z"/>
<path d="M2290 3989 c-393 -23 -795 -244 -1043 -575 -75 -99 -144 -224 -125
-224 7 0 26 24 42 53 169 303 468 549 799 658 162 53 307 72 497 66 181 -6
258 -19 420 -73 202 -67 370 -174 541 -344 104 -103 172 -192 265 -346 7 -11
15 -16 19 -12 8 8 -48 106 -113 197 -184 259 -470 462 -772 549 -173 50 -309
63 -530 51z"/>
<path d="M2910 2971 c-8 -5 -69 -11 -135 -14 -151 -7 -262 -29 -342 -68 -102
-49 -133 -114 -75 -159 23 -19 36 -21 88 -17 62 5 154 42 162 65 2 8 -11 5
-36 -8 -57 -30 -135 -37 -167 -16 -64 42 3 100 166 146 70 19 277 46 297 39
23 -9 -201 -441 -280 -541 -83 -105 -249 -149 -323 -85 -73 63 -13 227 100
278 53 24 86 24 119 -2 31 -24 35 -73 11 -119 -24 -47 0 -35 35 17 36 55 34
85 -6 121 -19 16 -37 22 -73 22 -123 0 -228 -84 -253 -203 -10 -47 -9 -58 8
-92 26 -53 72 -75 156 -75 134 0 208 47 324 206 58 80 80 104 93 98 43 -18
179 -16 259 4 97 25 156 57 211 117 113 122 26 226 -220 265 -41 6 -78 15 -83
20 -12 12 -16 12 -36 1z m202 -62 c94 -25 138 -62 138 -114 0 -78 -143 -178
-299 -211 -73 -15 -155 -11 -167 7 -3 5 15 41 39 81 60 99 82 143 102 209 l17
55 64 -8 c35 -4 83 -12 106 -19z"/>
<path d="M943 2940 c-101 -22 -165 -83 -149 -144 8 -34 36 -35 36 -1 0 35 38
68 102 90 59 21 286 32 350 18 l37 -8 -151 -90 c-169 -102 -358 -239 -465
-339 -64 -59 -76 -67 -101 -61 -21 4 -33 1 -47 -15 -18 -20 -18 -21 1 -39 18
-18 25 -18 129 -5 209 26 314 29 401 9 85 -19 134 -39 134 -56 0 -6 -5 -19
-10 -30 -18 -33 15 -23 49 16 36 41 36 43 16 73 -37 52 -196 70 -419 48 -87
-9 -160 -15 -162 -13 -6 5 162 138 287 228 66 47 184 125 261 173 l141 88 59
-6 c69 -8 94 4 77 35 -9 17 -12 18 -25 4 -17 -17 -40 -20 -49 -6 -3 5 4 12 15
16 11 3 20 11 20 16 0 14 -48 11 -80 -6 -25 -13 -41 -14 -92 -5 -89 14 -315
21 -365 10z"/>
<path d="M4058 2803 c-38 -41 -114 -153 -167 -245 -56 -100 -178 -183 -258
-176 -52 4 -54 32 -9 122 56 113 65 121 182 136 150 20 163 28 46 29 l-103 1
23 30 c21 29 21 31 4 48 -17 16 -20 15 -60 -30 -35 -38 -50 -47 -82 -50 -27
-2 -40 -8 -42 -20 -3 -14 3 -18 23 -18 l26 0 -37 -70 c-62 -119 -194 -219
-194 -147 0 21 23 65 92 173 20 31 24 44 15 53 -6 6 -15 11 -19 11 -4 0 -17 9
-29 21 -17 17 -28 20 -57 14 -72 -13 -195 -114 -236 -193 -31 -60 -14 -126 34
-132 37 -5 55 3 106 51 l54 52 0 -32 c0 -18 9 -40 21 -52 28 -28 60 -19 124
34 27 23 45 36 41 29 -13 -21 2 -60 29 -78 34 -22 115 -4 183 41 53 35 63 35
37 1 -21 -27 -19 -46 4 -46 11 0 34 20 54 48 59 78 198 202 229 202 4 0 -11
-30 -33 -67 -49 -84 -54 -143 -14 -169 24 -16 27 -15 64 9 48 32 144 127 136
135 -3 3 -31 -19 -63 -50 -61 -60 -96 -83 -112 -73 -25 16 -1 73 75 176 25 34
45 67 45 74 0 40 -68 15 -189 -70 -45 -31 -81 -53 -81 -49 0 4 23 39 52 78
129 176 158 219 152 227 -10 17 -30 9 -66 -28z m-588 -162 c0 -5 -33 -53 -74
-108 -75 -101 -135 -153 -174 -153 -33 0 -30 56 6 106 36 50 121 126 164 147
36 18 78 22 78 8z"/>
<path d="M1873 2650 c-18 -10 -65 -50 -105 -87 -111 -104 -115 -107 -88 -53
12 25 36 64 52 88 29 42 30 62 3 62 -7 0 -53 -46 -102 -102 -99 -114 -172
-175 -221 -184 -44 -9 -64 10 -60 55 3 32 6 36 38 41 54 9 128 50 166 92 53
59 42 98 -26 98 -86 0 -230 -149 -230 -238 0 -41 37 -72 86 -72 48 0 116 39
187 108 l48 47 -16 -42 c-19 -49 -17 -97 6 -101 10 -2 32 19 57 51 55 73 150
175 176 189 19 11 20 10 5 -13 -45 -71 -59 -98 -69 -140 -15 -60 -2 -89 39
-89 32 0 125 69 160 119 37 51 23 47 -36 -11 -91 -88 -129 -101 -120 -41 6 34
36 85 108 180 17 22 28 46 25 52 -11 17 -48 13 -83 -9z m-313 -34 c0 -30 -97
-107 -152 -120 -35 -8 -35 -2 -2 37 62 73 154 123 154 83z"/>
<path d="M1060 2003 c0 -3 23 -52 50 -107 137 -275 372 -511 644 -648 719
-362 1586 -78 1955 640 28 55 51 105 51 111 0 29 -20 2 -67 -91 -195 -392
-568 -678 -998 -766 -405 -83 -833 18 -1160 273 -166 129 -335 339 -415 517
-19 43 -41 77 -47 78 -7 0 -13 -3 -13 -7z"/>
<path d="M1430 1110 c-10 -18 -8 -19 20 -14 16 4 30 3 30 -2 0 -18 -71 -114
-80 -109 -22 14 -8 -14 15 -29 30 -20 39 -20 32 -2 -3 7 10 37 29 65 29 43 38
50 50 40 8 -7 12 -20 9 -33 -6 -21 -6 -21 9 -2 9 11 16 23 16 28 0 8 -100 78
-112 78 -4 0 -12 -9 -18 -20z"/>
<path d="M3311 1116 c-7 -8 -8 -16 -3 -18 5 -1 13 -18 17 -36 7 -32 6 -34 -16
-27 -32 10 -50 25 -43 36 8 14 -9 11 -34 -7 -22 -15 -22 -16 40 -47 45 -23 64
-38 66 -54 3 -22 4 -22 28 -7 22 15 36 43 15 29 -19 -11 -41 39 -41 92 0 54
-8 64 -29 39z"/>
<path d="M1716 955 c8 -19 -41 -125 -58 -125 -14 -1 31 -29 47 -30 6 0 10 14
11 30 1 40 5 42 42 29 38 -13 39 -18 11 -53 l-20 -26 26 -10 c35 -13 38 -13
31 5 -7 20 39 125 55 125 21 0 -3 18 -35 26 -21 5 -27 4 -22 -5 5 -7 5 -23 2
-36 -6 -22 -9 -23 -36 -13 -33 11 -40 38 -14 59 14 12 14 14 -2 26 -24 17 -45
17 -38 -2z"/>
<path d="M2988 943 c-35 -15 -51 -33 -28 -33 12 0 50 -87 50 -117 0 -23 0 -23
33 -6 23 12 27 18 16 21 -18 3 -34 42 -18 42 16 0 49 40 49 59 0 24 -26 51
-48 50 -9 -1 -34 -8 -54 -16z m66 -25 c11 -19 0 -48 -21 -55 -12 -4 -36 55
-27 69 9 14 35 6 48 -14z"/>
<path d="M2044 811 c-1 -28 -9 -63 -17 -80 -17 -34 -18 -34 57 -47 40 -7 56 4
56 36 -1 12 -3 12 -14 -2 -7 -10 -25 -18 -40 -18 -27 0 -32 15 -17 54 7 17 8
17 23 2 14 -14 17 -14 22 0 10 27 7 31 -18 27 -22 -5 -24 -3 -18 21 4 14 10
26 15 26 31 1 37 -2 37 -15 0 -8 5 -15 10 -15 6 0 10 9 10 19 0 15 -11 22 -50
30 -28 6 -52 11 -53 11 -1 0 -3 -22 -3 -49z"/>
<path d="M2695 798 c-4 -35 -12 -74 -17 -87 -11 -30 -4 -37 24 -23 13 6 17 11
11 11 -7 1 -13 9 -13 20 0 12 9 20 27 24 30 6 45 -7 35 -31 -4 -12 0 -14 19
-9 13 4 27 7 31 7 9 0 -94 150 -103 150 -4 0 -10 -28 -14 -62z m45 -29 c0 -4
-7 -9 -15 -13 -11 -4 -15 2 -15 27 1 30 1 31 15 13 8 -11 15 -23 15 -27z"/>
<path d="M2338 811 c10 -6 13 -28 10 -80 l-3 -71 30 0 c22 0 26 3 17 12 -16
16 -15 48 1 48 7 0 21 -13 30 -30 11 -18 26 -30 39 -30 20 0 19 1 -5 33 -25
33 -25 34 -6 50 22 19 25 47 7 65 -7 7 -39 12 -72 12 -37 0 -56 -4 -48 -9z
m91 -18 c12 -23 -4 -53 -29 -53 -15 0 -20 7 -20 28 0 44 29 59 49 25z"/>
</g>
</svg>
